<svg width="106" height="155" viewBox="0 0 106 155" fill="none" xmlns="http://www.w3.org/2000/svg">
<path opacity="0.05" d="M0.956 155L1.568 148.88L59.3 91.556C64.468 86.524 69.16 81.764 73.376 77.276C77.728 72.652 81.536 68.164 84.8 63.812C88.064 59.324 90.58 54.904 92.348 50.552C94.116 46.064 95 41.372 95 36.476C95 28.316 92.348 21.856 87.044 17.096C81.876 12.2 74.328 9.752 64.4 9.752C53.792 9.752 44.68 12.812 37.064 18.932C29.584 24.916 24.076 33.28 20.54 44.024L11.564 41.168C14.42 32.328 18.432 24.916 23.6 18.932C28.904 12.812 35.024 8.256 41.96 5.26399C48.896 2.13599 56.24 0.571994 63.992 0.571994C71.88 0.571994 78.884 2.13599 85.004 5.26399C91.26 8.256 96.156 12.472 99.692 17.912C103.364 23.216 105.2 29.472 105.2 36.68C105.2 42.392 104.112 47.9 101.936 53.204C99.76 58.372 96.904 63.336 93.368 68.096C89.968 72.72 86.364 77.072 82.556 81.152C78.884 85.096 75.416 88.632 72.152 91.76L17.276 145.82H96.836L95.204 155H0.956Z" fill="black"/>
</svg>
