<svg width="109" height="155" viewBox="0 0 109 155" fill="none" xmlns="http://www.w3.org/2000/svg">
<path opacity="0.05" d="M49.1 154.448C40.532 154.448 32.712 152.816 25.64 149.552C18.704 146.288 12.992 141.596 8.504 135.476C4.152 129.22 1.568 121.74 0.752001 113.036L10.34 111.404C11.428 121.876 15.372 130.172 22.172 136.292C28.972 142.276 37.948 145.268 49.1 145.268C57.26 145.268 64.536 143.432 70.928 139.76C77.456 136.088 82.556 131.056 86.228 124.664C90.036 118.136 91.94 110.724 91.94 102.428C91.94 95.084 90.308 88.964 87.044 84.068C83.916 79.172 79.632 75.568 74.192 73.256C68.888 70.808 62.836 69.584 56.036 69.584C54.676 69.584 53.112 69.652 51.344 69.788C49.712 69.924 48.148 70.128 46.652 70.4L45.428 66.32L93.776 9.19999H16.868L18.296 0.0199869H108.464L107.648 6.13999L58.484 64.076L58.076 61.22C65.828 60.812 72.968 62.308 79.496 65.708C86.16 68.972 91.532 73.8 95.612 80.192C99.692 86.584 101.732 94.268 101.732 103.244C101.732 110.18 100.372 116.776 97.652 123.032C95.068 129.152 91.328 134.592 86.432 139.352C81.672 143.976 76.096 147.648 69.704 150.368C63.312 153.088 56.444 154.448 49.1 154.448Z" fill="black"/>
</svg>
