<svg width="47" height="48" viewBox="0 0 47 48" fill="none" xmlns="http://www.w3.org/2000/svg">
<rect width="47" height="48" rx="13" fill="#FF0000"/>
<path d="M25.66 32.2H20.34C20.1172 32.2 19.9036 32.1083 19.746 31.9452C19.5885 31.782 19.5 31.5607 19.5 31.33V27.995C19.5 27.7643 19.4115 27.543 19.254 27.3798C19.0964 27.2167 18.8828 27.125 18.66 27.125H15.44C15.2172 27.125 15.0036 27.0333 14.846 26.8702C14.6885 26.707 14.6 26.4857 14.6 26.255V20.745C14.6 20.5143 14.6885 20.293 14.846 20.1298C15.0036 19.9667 15.2172 19.875 15.44 19.875H18.66C18.8828 19.875 19.0964 19.7833 19.254 19.6202C19.4115 19.457 19.5 19.2357 19.5 19.005V15.67C19.5 15.4393 19.5885 15.218 19.746 15.0548C19.9036 14.8917 20.1172 14.8 20.34 14.8H25.66C25.8828 14.8 26.0964 14.8917 26.254 15.0548C26.4115 15.218 26.5 15.4393 26.5 15.67V19.005C26.5 19.2357 26.5885 19.457 26.746 19.6202C26.9036 19.7833 27.1172 19.875 27.34 19.875H30.56C30.7828 19.875 30.9964 19.9667 31.154 20.1298C31.3115 20.293 31.4 20.5143 31.4 20.745V26.255C31.4 26.4857 31.3115 26.707 31.154 26.8702C30.9964 27.0333 30.7828 27.125 30.56 27.125H27.34C27.1172 27.125 26.9036 27.2167 26.746 27.3798C26.5885 27.543 26.5 27.7643 26.5 27.995V31.33C26.5 31.5607 26.4115 31.782 26.254 31.9452C26.0964 32.1083 25.8828 32.2 25.66 32.2Z" stroke="white" stroke-width="1.25"/>
<path d="M23 38C30.7322 38 37 31.5084 37 23.5C37 15.4917 30.7322 9 23 9C15.2678 9 9 15.4917 9 23.5C9 31.5084 15.2678 38 23 38Z" stroke="white" stroke-width="1.25" stroke-linecap="round" stroke-linejoin="round"/>
</svg>
