<svg width="50" height="48" viewBox="0 0 50 48" fill="none" xmlns="http://www.w3.org/2000/svg">
<g filter="url(#filter0_d_6_126)">
<rect width="33.8111" height="34.8435" rx="5" transform="matrix(0.942048 -0.335478 0.348655 0.937251 5.69788 14.6442)" fill="#86D175"/>
</g>
<path d="M19.0701 41.4246L18.5378 34.7592C16.7127 33.3019 15.3302 31.3976 14.5325 29.2422C12.0292 22.5128 15.6937 15.0303 22.7177 12.529C29.7416 10.0276 37.4645 13.4549 39.9678 20.1843C42.4711 26.9136 38.8066 34.3961 31.7827 36.8975C29.5365 37.7013 27.1166 37.9178 24.7716 37.5246L19.0701 41.4246ZM20.5337 20.6309C20.3731 20.6991 20.2281 20.7977 20.1072 20.9207C19.9971 21.0447 19.906 21.1831 19.8367 21.3317C19.7353 21.5237 19.6932 21.6739 19.6434 21.8227C19.3914 22.5762 19.4062 23.3856 19.6854 24.1231C19.9101 24.7192 20.2891 25.2425 20.7456 25.6953C21.6745 26.6091 22.9633 27.4679 24.495 28.1436C24.8637 28.3062 25.2265 28.4723 25.6029 28.6128C27.4464 29.2968 29.4362 29.5549 31.4138 29.3666L32.1769 29.2149C32.4167 29.1433 32.6456 29.0425 32.8781 28.9473C33.2416 28.797 33.5676 28.5722 33.8327 28.2885C33.9687 28.147 34.098 27.9997 34.2201 27.847C34.2201 27.847 34.2621 27.7934 34.3383 27.6808C34.4647 27.4978 34.538 27.3737 34.6274 27.1804C34.694 27.038 34.7398 26.8824 34.7576 26.7173C34.7829 26.4834 34.7412 26.0691 34.6645 25.7391C34.6053 25.487 34.5474 25.3585 34.5132 25.2783C34.4596 25.1497 34.2961 25.0548 34.1515 25.0414L33.293 24.987C33.293 24.987 32.0148 24.9192 31.2298 24.8649C31.1475 24.8605 31.0649 24.8707 30.9861 24.8951C30.8959 24.9175 30.8115 24.9582 30.7385 25.0144C30.6655 25.0706 30.6057 25.1411 30.563 25.221L30.562 25.2186C30.5557 25.2208 30.4963 25.3206 29.9739 26.7154C29.9464 26.8022 29.8928 26.8794 29.8199 26.9373C29.7471 26.9952 29.6582 27.0311 29.5648 27.0405C29.474 27.0488 29.3829 27.0508 29.292 27.0466C29.1107 27.0394 29.0469 27.0345 28.9221 27.0279L28.9148 27.0277C28.074 26.9825 27.2475 26.8113 26.4649 26.5203C26.2548 26.4434 26.0516 26.3502 25.8464 26.2632C25.1753 25.9823 24.5461 25.6182 23.9745 25.1802L23.8564 25.0911C23.7736 25.0325 23.6988 24.9642 23.6338 24.8875C23.5188 24.7256 23.5912 24.537 23.5912 24.537C23.5912 24.537 23.7797 24.1029 23.8581 23.8762C23.9236 23.6878 23.9788 23.4964 24.0236 23.3027C24.0875 23.0177 24.0462 22.7634 23.8989 22.6075C23.2328 21.9009 22.5553 21.2025 21.8699 20.5138C21.7341 20.3772 21.4681 20.3395 21.2573 20.3884C21.1859 20.4055 21.1145 20.4227 21.044 20.4422C20.8702 20.4949 20.7001 20.5587 20.5337 20.6309Z" fill="white"/>
<defs>
<filter id="filter0_d_6_126" x="0.127563" y="0.686226" width="48.1406" height="47.2302" filterUnits="userSpaceOnUse" color-interpolation-filters="sRGB">
<feFlood flood-opacity="0" result="BackgroundImageFix"/>
<feColorMatrix in="SourceAlpha" type="matrix" values="0 0 0 0 0 0 0 0 0 0 0 0 0 0 0 0 0 0 127 0" result="hardAlpha"/>
<feMorphology radius="3" operator="dilate" in="SourceAlpha" result="effect1_dropShadow_6_126"/>
<feOffset dx="-4" dy="-1"/>
<feComposite in2="hardAlpha" operator="out"/>
<feColorMatrix type="matrix" values="0 0 0 0 0.25098 0 0 0 0 0.713726 0 0 0 0 0.14902 0 0 0 1 0"/>
<feBlend mode="normal" in2="BackgroundImageFix" result="effect1_dropShadow_6_126"/>
<feBlend mode="normal" in="SourceGraphic" in2="effect1_dropShadow_6_126" result="shape"/>
</filter>
</defs>
</svg>
