<svg width="51" height="49" viewBox="0 0 51 49" fill="none" xmlns="http://www.w3.org/2000/svg">
<g filter="url(#filter0_d_6_127)">
<rect x="6" y="14.6287" width="34" height="35.6287" rx="5" transform="rotate(-20 6 14.6287)" fill="#8DABCD"/>
</g>
<path d="M20.6285 20.2851C20.8096 20.7836 20.7756 21.3372 20.5337 21.8241C20.2919 22.3111 19.8622 22.6914 19.3391 22.8815C18.816 23.0717 18.2423 23.056 17.7443 22.8379C17.2463 22.6198 16.8648 22.2172 16.6837 21.7187C16.5025 21.2202 16.5366 20.6666 16.7784 20.1797C17.0202 19.6927 17.4499 19.3124 17.9731 19.1223C18.4962 18.9321 19.0698 18.9478 19.5678 19.1659C20.0658 19.384 20.4473 19.7866 20.6285 20.2851ZM21.8778 23.5335L17.9337 24.969L22.2155 36.7333L26.1597 35.2978L21.8778 23.5335ZM28.1096 21.2653L24.1851 22.6937L28.467 34.458L32.352 33.044L30.105 26.8705C28.8533 23.4314 33.4404 21.4001 34.8084 25.1586L37.0554 31.3321L40.9502 29.9145L38.2381 22.4631C36.128 16.6655 29.2452 19.4154 28.6447 22.8583L28.1096 21.2653Z" fill="white"/>
<defs>
<filter id="filter0_d_6_127" x="0.407227" y="0.407166" width="48.3209" height="48.2943" filterUnits="userSpaceOnUse" color-interpolation-filters="sRGB">
<feFlood flood-opacity="0" result="BackgroundImageFix"/>
<feColorMatrix in="SourceAlpha" type="matrix" values="0 0 0 0 0 0 0 0 0 0 0 0 0 0 0 0 0 0 127 0" result="hardAlpha"/>
<feMorphology radius="3" operator="dilate" in="SourceAlpha" result="effect1_dropShadow_6_127"/>
<feOffset dx="-4" dy="-1"/>
<feComposite in2="hardAlpha" operator="out"/>
<feColorMatrix type="matrix" values="0 0 0 0 0.113725 0 0 0 0 0.427451 0 0 0 0 0.776471 0 0 0 1 0"/>
<feBlend mode="normal" in2="BackgroundImageFix" result="effect1_dropShadow_6_127"/>
<feBlend mode="normal" in="SourceGraphic" in2="effect1_dropShadow_6_127" result="shape"/>
</filter>
</defs>
</svg>
