<svg width="50" height="48" viewBox="0 0 50 48" fill="none" xmlns="http://www.w3.org/2000/svg">
<g filter="url(#filter0_d_6_131)">
<rect width="33.8111" height="34.8435" rx="5" transform="matrix(0.942048 -0.335478 0.348655 0.937251 6 14.3429)" fill="#FED978"/>
</g>
<path d="M33.6059 13.7524L17.0673 19.772C15.9303 20.1858 15.3566 21.4721 15.7799 22.635L20.3868 35.3246C20.8101 36.4875 22.0867 37.1003 23.2237 36.6865L39.7623 30.6669C40.8993 30.2531 41.4833 28.963 41.0601 27.8002L36.4428 15.1143C36.0195 13.9514 34.7429 13.3386 33.6059 13.7524ZM35.145 17.9811L28.7996 26.2766L18.6064 24.0006L17.8369 21.8863L28.03 24.1623L34.3755 15.8668L35.145 17.9811Z" fill="white"/>
<defs>
<filter id="filter0_d_6_131" x="0.429688" y="0.384888" width="48.1406" height="47.2302" filterUnits="userSpaceOnUse" color-interpolation-filters="sRGB">
<feFlood flood-opacity="0" result="BackgroundImageFix"/>
<feColorMatrix in="SourceAlpha" type="matrix" values="0 0 0 0 0 0 0 0 0 0 0 0 0 0 0 0 0 0 127 0" result="hardAlpha"/>
<feMorphology radius="3" operator="dilate" in="SourceAlpha" result="effect1_dropShadow_6_131"/>
<feOffset dx="-4" dy="-1"/>
<feComposite in2="hardAlpha" operator="out"/>
<feColorMatrix type="matrix" values="0 0 0 0 0.992157 0 0 0 0 0.721569 0 0 0 0 0.0117647 0 0 0 1 0"/>
<feBlend mode="normal" in2="BackgroundImageFix" result="effect1_dropShadow_6_131"/>
<feBlend mode="normal" in="SourceGraphic" in2="effect1_dropShadow_6_131" result="shape"/>
</filter>
</defs>
</svg>
