<svg width="50" height="48" viewBox="0 0 50 48" fill="none" xmlns="http://www.w3.org/2000/svg">
<g filter="url(#filter0_d_6_134)">
<rect width="33.8111" height="34.8435" rx="5" transform="matrix(0.942048 -0.335478 0.348655 0.937251 6 14.3429)" fill="#F38644"/>
</g>
<path d="M24.2377 14.6634C18.0106 16.9299 14.646 23.396 16.7236 29.1042C18.8013 34.8124 25.535 37.6031 31.7622 35.3366C37.9893 33.0701 41.3539 26.604 39.2763 20.8957C37.1987 15.1875 30.4649 12.3969 24.2377 14.6634ZM32.4929 20.4826C32.5399 20.5883 32.581 20.7014 32.6213 20.8121C33.8541 24.1992 32.4602 29.1251 27.3179 30.9967C25.7321 31.5739 24.1085 31.6867 22.6056 31.4106C22.8405 31.3512 23.0603 31.2817 23.2919 31.1974C24.6008 30.721 25.6561 29.877 26.3648 28.8404C25.1281 29.2644 23.8274 28.9017 23.1055 28.0147C23.5569 27.9157 23.9446 27.7747 24.3498 27.5096C23.6744 27.622 22.9914 27.514 22.4166 27.2041C21.8418 26.8941 21.4108 26.4012 21.1968 25.8091L21.185 25.7768C21.6247 25.8336 22.103 25.7928 22.5645 25.6431C22.0963 25.5486 21.6668 25.3459 21.3142 25.0531C20.9615 24.7603 20.6964 24.3865 20.5426 23.9647C20.3687 23.4871 20.3459 23.0015 20.4524 22.5343C21.4427 23.0709 22.5545 23.4 23.7155 23.5001C24.8766 23.6001 26.0608 23.469 27.1913 23.1151C26.1621 21.5169 27.0686 19.5905 28.7752 18.9694C29.5806 18.6762 30.4181 18.7215 31.1104 19.0339C31.7027 18.6955 32.2279 18.2588 32.6607 17.772C32.6676 18.441 32.4119 19.1011 31.9455 19.6288C32.4892 19.3683 32.9808 19.0273 33.4111 18.6434C33.2175 19.2939 32.9072 19.9216 32.4929 20.4826Z" fill="white"/>
<defs>
<filter id="filter0_d_6_134" x="0.429688" y="0.384888" width="48.1406" height="47.2303" filterUnits="userSpaceOnUse" color-interpolation-filters="sRGB">
<feFlood flood-opacity="0" result="BackgroundImageFix"/>
<feColorMatrix in="SourceAlpha" type="matrix" values="0 0 0 0 0 0 0 0 0 0 0 0 0 0 0 0 0 0 127 0" result="hardAlpha"/>
<feMorphology radius="3" operator="dilate" in="SourceAlpha" result="effect1_dropShadow_6_134"/>
<feOffset dx="-4" dy="-1"/>
<feComposite in2="hardAlpha" operator="out"/>
<feColorMatrix type="matrix" values="0 0 0 0 0.945098 0 0 0 0 0.356863 0 0 0 0 0 0 0 0 1 0"/>
<feBlend mode="normal" in2="BackgroundImageFix" result="effect1_dropShadow_6_134"/>
<feBlend mode="normal" in="SourceGraphic" in2="effect1_dropShadow_6_134" result="shape"/>
</filter>
</defs>
</svg>
